<svg width="111" height="35" viewBox="0 0 111 35" fill="none" xmlns="http://www.w3.org/2000/svg">
<path d="M6.28637 -22.9316L10.5778 -23.6943C14.0787 -24.3166 16.4702 -27.854 15.8236 -31.4331C15.4978 -33.2368 14.4402 -34.7359 12.8661 -35.7068L9.61056 -37.9205C6.38323 -40.1393 5.58394 -44.5639 7.83381 -47.7561L13.0046 -55.1035C14.0229 -56.5643 15.7257 -57.6232 17.5891 -57.9544C19.4524 -58.2856 21.3917 -57.874 22.8862 -56.8598L26.0186 -54.6824C27.5437 -53.4991 29.3751 -53.0393 31.2103 -53.3655C34.8241 -54.0078 37.3155 -57.4757 36.6893 -60.9421L35.9104 -65.254C35.2231 -69.0586 37.71 -72.8747 41.5497 -73.5572L50.1325 -75.0827C53.9722 -75.7652 57.6068 -73.0662 58.2992 -69.2334L59.073 -64.9497C59.6992 -61.4833 63.2496 -59.0893 66.8634 -59.7316C68.6703 -60.0528 70.1986 -61.1098 71.1734 -62.6501L73.4232 -65.8424C74.4364 -67.3314 76.1442 -68.3621 78.0076 -68.6933C79.871 -69.0245 81.8103 -68.6129 83.3048 -67.5987L90.7772 -62.5277C93.9763 -60.304 94.7756 -55.8794 92.5489 -52.7203L90.3735 -49.5995C89.191 -48.0804 88.7059 -46.2489 89.0317 -44.4452C89.6834 -40.8379 93.1592 -38.3725 96.6601 -38.9948L100.952 -39.7575C104.819 -40.445 108.611 -38.0066 109.303 -34.1738L110.077 -29.8901L110.851 -25.6064C111.538 -21.8018 108.841 -18.181 104.973 -17.4935L100.682 -16.7308C97.1811 -16.1085 94.7896 -12.5711 95.4362 -8.992C95.762 -7.18834 96.858 -5.63791 98.4987 -4.62062L101.626 -2.47138C104.825 -0.247628 105.624 4.17698 103.398 7.33604L98.232 14.7115C97.2188 16.2005 95.511 17.2313 93.6476 17.5625C91.7842 17.8937 89.8449 17.4821 88.3504 16.4679L85.1231 14.2492C83.6981 13.1354 81.8666 12.6755 80.0597 12.9967C76.4459 13.639 73.9544 17.1069 74.5806 20.5733L75.3544 24.857C76.0417 28.6616 73.5831 32.4727 69.7152 33.1602L61.1324 34.6858C57.2927 35.3682 53.6581 32.6692 52.9657 28.8365L52.1919 24.5528C51.5657 21.0863 48.0153 18.6923 44.4015 19.3347C42.5946 19.6558 41.0431 20.746 39.9939 22.3578L37.8185 25.4786C36.772 26.9445 35.0975 27.9984 33.2341 28.3296C31.3707 28.6608 29.4315 28.2492 27.937 27.235L20.5108 22.0976C17.3117 19.8738 16.5124 15.4492 18.7341 12.262L21.0122 9.0647C22.1484 7.61199 22.6104 5.81375 22.2896 4.03827C21.638 0.430943 18.1621 -2.03448 14.6612 -1.41223L10.3698 -0.649466C6.53012 0.0330052 3.24678 -2.49574 2.55441 -6.32852L1.77549 -10.6404L1.00166 -14.9241C0.252818 -18.7468 2.44668 -22.2491 6.28637 -22.9316ZM33.0576 -16.2005C35.3028 -3.77217 47.2096 4.55377 59.7168 2.33071C72.224 0.107664 80.4755 -11.8012 78.2304 -24.2296C75.9853 -36.658 64.0784 -44.9839 51.5712 -42.7609C39.064 -40.5378 30.8125 -28.6289 33.0576 -16.2005Z" fill="white" fill-opacity="0.8"/>
</svg>
