<svg width="114" height="106" viewBox="0 0 114 106" fill="none" xmlns="http://www.w3.org/2000/svg">
<path d="M8.73282 18.5696H14.4783C19.1655 18.5696 23.0966 14.5303 23.0966 9.73601C23.0966 7.31997 22.076 5.13044 20.2617 3.50716L16.5573 -0.116898C12.8908 -3.74095 12.8908 -9.66779 16.5573 -13.2918L24.9866 -21.6347C26.6498 -23.2958 29.1068 -24.2773 31.6015 -24.2773C34.0963 -24.2773 36.5155 -23.2958 38.2164 -21.6347L41.7696 -18.0862C43.4706 -16.1986 45.7385 -15.1794 48.1955 -15.1794C53.0338 -15.1794 57.0784 -19.1054 57.0784 -23.7488V-29.5246C57.0784 -34.6209 61.1985 -39 66.3392 -39H77.8303C82.971 -39 87.0534 -34.6587 87.0534 -29.5246V-23.7865C87.0534 -19.1432 91.0979 -15.2171 95.9363 -15.2171C98.3554 -15.2171 100.586 -16.2364 102.211 -18.0107L105.878 -21.6347C107.541 -23.3335 109.998 -24.2773 112.492 -24.2773C114.987 -24.2773 117.406 -23.2958 119.107 -21.6347L127.612 -13.3296C131.241 -9.70555 131.241 -3.7787 127.612 -0.192398L124.059 3.35616C122.169 5.05493 121.111 7.31997 121.111 9.73601C121.111 14.5681 125.042 18.5696 129.729 18.5696H135.475C140.653 18.5696 145 22.609 145 27.743V33.4811V39.2192C145 44.3155 140.653 48.3926 135.475 48.3926H129.729C125.042 48.3926 121.111 52.4319 121.111 57.2262C121.111 59.6423 122.169 61.9073 124.059 63.6061L127.612 67.1169C131.241 70.7409 131.241 76.6678 127.612 80.2541L119.183 88.6347C117.52 90.3335 115.063 91.2773 112.568 91.2773C110.073 91.2773 107.654 90.2958 105.953 88.6347L102.287 85.0107C100.699 83.2364 98.431 82.2171 96.0119 82.2171C91.1735 82.2171 87.129 86.1432 87.129 90.7865V96.5246C87.129 101.621 83.0466 106 77.8681 106H66.3771C61.2363 106 57.154 101.659 57.154 96.5246V90.7865C57.154 86.1432 53.1094 82.2171 48.2711 82.2171C45.8519 82.2171 43.584 83.2741 41.8452 85.1239L38.292 88.6725C36.5911 90.3335 34.1719 91.315 31.6771 91.315C29.1824 91.315 26.7632 90.3335 25.0622 88.6725L16.6329 80.2918C13.0042 76.6678 13.0042 70.7409 16.6329 67.1169L20.3373 63.4928C22.1516 61.8696 23.1722 59.6423 23.1722 57.264C23.1722 52.4319 19.2411 48.4304 14.5539 48.4304H8.80842C3.66769 48.4304 0.00114238 44.391 0.00114238 39.257V33.4811V27.743C-0.0744566 22.609 3.59209 18.5696 8.73282 18.5696ZM41.883 33.4811C41.883 50.1291 55.3774 63.6816 72.1226 63.6816C88.8678 63.6816 102.362 50.1291 102.362 33.4811C102.362 16.8331 88.8678 3.28065 72.1226 3.28065C55.3774 3.28065 41.883 16.8331 41.883 33.4811Z" fill="white" fill-opacity="0.8"/>
</svg>
