<svg width="24" height="22" viewBox="0 0 24 22" fill="none" xmlns="http://www.w3.org/2000/svg">
<g clip-path="url(#clip0_152_1993)">
<path d="M4.2002 14.6946C6.10504 14.6947 7.59961 16.1779 7.59961 17.9475C7.59955 19.7171 6.10501 21.2003 4.2002 21.2004C2.29529 21.2004 0.799863 19.7172 0.799805 17.9475C0.799805 16.1778 2.29525 14.6946 4.2002 14.6946Z" stroke="#7A6587" stroke-width="1.6"/>
<path d="M19.8002 0.799805C21.705 0.799906 23.1996 2.28311 23.1996 4.05273C23.1995 5.82231 21.705 7.30556 19.8002 7.30566C17.8953 7.30566 16.3998 5.82237 16.3998 4.05273C16.3998 2.28305 17.8952 0.799805 19.8002 0.799805Z" stroke="#7A6587" stroke-width="1.6"/>
<path d="M19.8002 14.6946C21.705 14.6947 23.1996 16.1779 23.1996 17.9475C23.1995 19.7171 21.705 21.2003 19.8002 21.2004C17.8953 21.2004 16.3998 19.7172 16.3998 17.9475C16.3998 16.1778 17.8952 14.6946 19.8002 14.6946Z" stroke="#7A6587" stroke-width="1.6"/>
<path d="M4.2002 0.799805C6.10504 0.799906 7.59961 2.28311 7.59961 4.05273C7.59955 5.82231 6.10501 7.30556 4.2002 7.30566C2.29529 7.30566 0.799863 5.82237 0.799805 4.05273C0.799805 2.28305 2.29525 0.799805 4.2002 0.799805Z" stroke="#7A6587" stroke-width="1.6"/>
</g>
<defs>
<clipPath id="clip0_152_1993">
<rect width="24" height="22" fill="white"/>
</clipPath>
</defs>
</svg>
